<svg xmlns="http://www.w3.org/2000/svg" viewBox="0 -931 4210 1000" role="img"><path d="M61 0V-810H260Q314 -810 357.5 -800.0Q401 -790 432.5 -766.5Q464 -743 481.0 -703.0Q498 -663 498 -602Q498 -553 484.5 -518.0Q471 -483 445.0 -462.5Q419 -442 380 -435Q428 -427 459.5 -401.5Q491 -376 506.5 -335.0Q522 -294 522 -236Q522 -178 507.5 -133.5Q493 -89 464.5 -59.5Q436 -30 393.5 -15.0Q351 0 294 0ZM209 -104H265Q332 -104 356.0 -136.5Q380 -169 380 -237Q380 -286 368.5 -316.5Q357 -347 330.5 -362.0Q304 -377 260 -377H209ZM209 -479H259Q303 -479 327.0 -492.0Q351 -505 360.5 -532.0Q370 -559 370 -600Q370 -643 355.5 -666.5Q341 -690 312.0 -698.5Q283 -707 238 -707H209ZM784.0 9Q719.0 9 678.0 -15.5Q637.0 -40 617.5 -87.5Q598.0 -135 598.0 -202V-376Q598.0 -445 617.5 -492.0Q637.0 -539 678.5 -563.0Q720.0 -587 784.0 -587Q853.0 -587 891.5 -561.0Q930.0 -535 946.5 -485.5Q963.0 -436 963.0 -365V-283H733.0V-169Q733.0 -141 738.5 -123.0Q744.0 -105 756.0 -97.0Q768.0 -89 785.0 -89Q803.0 -89 814.0 -97.5Q825.0 -106 830.0 -122.5Q835.0 -139 835.0 -164V-212H962.0V-173Q962.0 -85 918.0 -38.0Q874.0 9 784.0 9ZM733.0 -350H835.0V-405Q835.0 -435 830.0 -453.5Q825.0 -472 814.0 -480.5Q803.0 -489 783.0 -489Q765.0 -489 754.0 -480.0Q743.0 -471 738.0 -450.0Q733.0 -429 733.0 -390ZM1282.0 11Q1193.0 11 1142.5 -24.0Q1092.0 -59 1072.0 -119.5Q1052.0 -180 1052.0 -259V-548Q1052.0 -631 1072.0 -692.0Q1092.0 -753 1142.5 -786.0Q1193.0 -819 1282.0 -819Q1366.0 -819 1413.5 -790.5Q1461.0 -762 1481.0 -709.0Q1501.0 -656 1501.0 -586V-518H1359.0V-588Q1359.0 -622 1355.5 -650.0Q1352.0 -678 1336.5 -694.5Q1321.0 -711 1283.0 -711Q1245.0 -711 1227.5 -693.5Q1210.0 -676 1205.0 -646.5Q1200.0 -617 1200.0 -580V-228Q1200.0 -184 1207.0 -155.5Q1214.0 -127 1232.5 -112.5Q1251.0 -98 1283.0 -98Q1320.0 -98 1335.5 -115.5Q1351.0 -133 1355.0 -162.0Q1359.0 -191 1359.0 -227V-300H1501.0V-235Q1501.0 -163 1482.0 -107.5Q1463.0 -52 1415.5 -20.5Q1368.0 11 1282.0 11ZM1604.0 0V-810H1739.0V0ZM2022.0 9Q1959.0 9 1918.0 -14.5Q1877.0 -38 1856.5 -83.0Q1836.0 -128 1836.0 -192V-386Q1836.0 -450 1856.5 -495.0Q1877.0 -540 1918.0 -563.5Q1959.0 -587 2022.0 -587Q2085.0 -587 2126.5 -563.5Q2168.0 -540 2188.5 -495.0Q2209.0 -450 2209.0 -386V-192Q2209.0 -128 2188.5 -83.0Q2168.0 -38 2126.5 -14.5Q2085.0 9 2022.0 9ZM2023.0 -85Q2046.0 -85 2057.0 -98.0Q2068.0 -111 2071.0 -133.5Q2074.0 -156 2074.0 -183V-395Q2074.0 -422 2071.0 -444.0Q2068.0 -466 2057.0 -479.5Q2046.0 -493 2023.0 -493Q2000.0 -493 1989.0 -479.5Q1978.0 -466 1974.5 -444.0Q1971.0 -422 1971.0 -395V-183Q1971.0 -156 1974.5 -133.5Q1978.0 -111 1989.0 -98.0Q2000.0 -85 2023.0 -85ZM2395.0 9Q2361.0 9 2339.0 -8.5Q2317.0 -26 2307.0 -55.5Q2297.0 -85 2297.0 -118V-578H2433.0V-143Q2433.0 -117 2441.5 -102.5Q2450.0 -88 2473.0 -88Q2488.0 -88 2503.5 -96.0Q2519.0 -104 2534.0 -115V-578H2670.0V0H2534.0V-55Q2505.0 -27 2470.0 -9.0Q2435.0 9 2395.0 9ZM2905.0 9Q2836.0 9 2800.5 -40.0Q2765.0 -89 2765.0 -197V-374Q2765.0 -434 2778.5 -482.0Q2792.0 -530 2822.0 -558.5Q2852.0 -587 2903.0 -587Q2934.0 -587 2960.5 -574.5Q2987.0 -562 3009.0 -542V-810H3145.0V0H3009.0V-41Q2986.0 -18 2960.0 -4.5Q2934.0 9 2905.0 9ZM2955.0 -85Q2966.0 -85 2980.0 -90.0Q2994.0 -95 3009.0 -104V-475Q2997.0 -483 2983.0 -488.5Q2969.0 -494 2954.0 -494Q2925.0 -494 2913.5 -467.5Q2902.0 -441 2902.0 -403V-187Q2902.0 -158 2906.0 -135.0Q2910.0 -112 2921.5 -98.5Q2933.0 -85 2955.0 -85Z" fill="#2F3586"/><path d="M3243.0 0V-137H3375.0V0ZM3433.0 0 3595.0 -810H3753.0L3915.0 0H3778.0L3746.0 -187H3605.0L3572.0 0ZM3620.0 -281H3730.0L3675.0 -621ZM4000.0 0V-810H4146.0V0Z" fill="#4A6BFF"/></svg>